<mxfile host="app.diagrams.net" modified="2023-02-22T13:21:03.487Z" agent="5.0 (Windows NT 10.0; Win64; x64) AppleWebKit/537.36 (KHTML, like Gecko) Chrome/108.0.0.0 YaBrowser/23.1.2.987 Yowser/2.5 Safari/537.36" etag="KRvCogTu11_zi6dA5KpJ" version="20.8.22" type="github">
  <diagram name="Страница 1" id="SxBzqHySoEF2-zu_0Ctc">
    <mxGraphModel dx="1386" dy="783" grid="1" gridSize="10" guides="1" tooltips="1" connect="1" arrows="1" fold="1" page="1" pageScale="1" pageWidth="827" pageHeight="1169" math="0" shadow="0">
      <root>
        <mxCell id="0" />
        <mxCell id="1" parent="0" />
        <mxCell id="Ll76KPAyWpBioGP8J1gQ-6" value="" style="edgeStyle=orthogonalEdgeStyle;rounded=0;orthogonalLoop=1;jettySize=auto;html=1;" edge="1" parent="1" source="Ll76KPAyWpBioGP8J1gQ-1" target="Ll76KPAyWpBioGP8J1gQ-2">
          <mxGeometry relative="1" as="geometry" />
        </mxCell>
        <mxCell id="Ll76KPAyWpBioGP8J1gQ-1" value="start" style="ellipse;whiteSpace=wrap;html=1;" vertex="1" parent="1">
          <mxGeometry x="360" y="40" width="120" height="60" as="geometry" />
        </mxCell>
        <mxCell id="Ll76KPAyWpBioGP8J1gQ-7" value="" style="edgeStyle=orthogonalEdgeStyle;rounded=0;orthogonalLoop=1;jettySize=auto;html=1;" edge="1" parent="1" source="Ll76KPAyWpBioGP8J1gQ-2" target="Ll76KPAyWpBioGP8J1gQ-3">
          <mxGeometry relative="1" as="geometry" />
        </mxCell>
        <mxCell id="Ll76KPAyWpBioGP8J1gQ-2" value="size&lt;br&gt;array[size]" style="shape=parallelogram;perimeter=parallelogramPerimeter;whiteSpace=wrap;html=1;fixedSize=1;" vertex="1" parent="1">
          <mxGeometry x="360" y="130" width="120" height="60" as="geometry" />
        </mxCell>
        <mxCell id="Ll76KPAyWpBioGP8J1gQ-18" value="" style="edgeStyle=orthogonalEdgeStyle;rounded=0;orthogonalLoop=1;jettySize=auto;html=1;" edge="1" parent="1" source="Ll76KPAyWpBioGP8J1gQ-3" target="Ll76KPAyWpBioGP8J1gQ-16">
          <mxGeometry relative="1" as="geometry" />
        </mxCell>
        <mxCell id="Ll76KPAyWpBioGP8J1gQ-3" value="index = 0" style="rounded=0;whiteSpace=wrap;html=1;" vertex="1" parent="1">
          <mxGeometry x="360" y="230" width="120" height="60" as="geometry" />
        </mxCell>
        <mxCell id="Ll76KPAyWpBioGP8J1gQ-11" value="" style="edgeStyle=orthogonalEdgeStyle;rounded=0;orthogonalLoop=1;jettySize=auto;html=1;" edge="1" parent="1" source="Ll76KPAyWpBioGP8J1gQ-4" target="Ll76KPAyWpBioGP8J1gQ-10">
          <mxGeometry relative="1" as="geometry" />
        </mxCell>
        <mxCell id="Ll76KPAyWpBioGP8J1gQ-13" value="" style="edgeStyle=orthogonalEdgeStyle;rounded=0;orthogonalLoop=1;jettySize=auto;html=1;" edge="1" parent="1" source="Ll76KPAyWpBioGP8J1gQ-4" target="Ll76KPAyWpBioGP8J1gQ-5">
          <mxGeometry relative="1" as="geometry" />
        </mxCell>
        <mxCell id="Ll76KPAyWpBioGP8J1gQ-4" value="array{index].Lenght &amp;gt;= 3" style="rhombus;whiteSpace=wrap;html=1;" vertex="1" parent="1">
          <mxGeometry x="295" y="475" width="250" height="130" as="geometry" />
        </mxCell>
        <mxCell id="Ll76KPAyWpBioGP8J1gQ-9" style="edgeStyle=orthogonalEdgeStyle;rounded=0;orthogonalLoop=1;jettySize=auto;html=1;" edge="1" parent="1" source="Ll76KPAyWpBioGP8J1gQ-5">
          <mxGeometry relative="1" as="geometry">
            <mxPoint x="420" y="320" as="targetPoint" />
            <Array as="points">
              <mxPoint x="160" y="310" />
              <mxPoint x="420" y="310" />
            </Array>
          </mxGeometry>
        </mxCell>
        <mxCell id="Ll76KPAyWpBioGP8J1gQ-5" value="index ++" style="rounded=0;whiteSpace=wrap;html=1;" vertex="1" parent="1">
          <mxGeometry x="100" y="510" width="120" height="60" as="geometry" />
        </mxCell>
        <mxCell id="Ll76KPAyWpBioGP8J1gQ-15" style="edgeStyle=orthogonalEdgeStyle;rounded=0;orthogonalLoop=1;jettySize=auto;html=1;entryX=0.5;entryY=1;entryDx=0;entryDy=0;" edge="1" parent="1" source="Ll76KPAyWpBioGP8J1gQ-10" target="Ll76KPAyWpBioGP8J1gQ-5">
          <mxGeometry relative="1" as="geometry" />
        </mxCell>
        <mxCell id="Ll76KPAyWpBioGP8J1gQ-10" value="array[i]" style="shape=parallelogram;perimeter=parallelogramPerimeter;whiteSpace=wrap;html=1;fixedSize=1;" vertex="1" parent="1">
          <mxGeometry x="340" y="630" width="160" height="60" as="geometry" />
        </mxCell>
        <mxCell id="Ll76KPAyWpBioGP8J1gQ-12" value="yes" style="text;html=1;strokeColor=none;fillColor=none;align=center;verticalAlign=middle;whiteSpace=wrap;rounded=0;" vertex="1" parent="1">
          <mxGeometry x="430" y="600" width="60" height="30" as="geometry" />
        </mxCell>
        <mxCell id="Ll76KPAyWpBioGP8J1gQ-14" value="no" style="text;html=1;strokeColor=none;fillColor=none;align=center;verticalAlign=middle;whiteSpace=wrap;rounded=0;" vertex="1" parent="1">
          <mxGeometry x="235" y="510" width="60" height="30" as="geometry" />
        </mxCell>
        <mxCell id="Ll76KPAyWpBioGP8J1gQ-17" value="" style="edgeStyle=orthogonalEdgeStyle;rounded=0;orthogonalLoop=1;jettySize=auto;html=1;" edge="1" parent="1" source="Ll76KPAyWpBioGP8J1gQ-16" target="Ll76KPAyWpBioGP8J1gQ-4">
          <mxGeometry relative="1" as="geometry" />
        </mxCell>
        <mxCell id="Ll76KPAyWpBioGP8J1gQ-20" value="" style="edgeStyle=orthogonalEdgeStyle;rounded=0;orthogonalLoop=1;jettySize=auto;html=1;" edge="1" parent="1" source="Ll76KPAyWpBioGP8J1gQ-16">
          <mxGeometry relative="1" as="geometry">
            <mxPoint x="520" y="360" as="targetPoint" />
          </mxGeometry>
        </mxCell>
        <mxCell id="Ll76KPAyWpBioGP8J1gQ-16" value="index &amp;lt; size" style="rhombus;whiteSpace=wrap;html=1;" vertex="1" parent="1">
          <mxGeometry x="380" y="320" width="80" height="80" as="geometry" />
        </mxCell>
        <mxCell id="Ll76KPAyWpBioGP8J1gQ-21" value="end" style="ellipse;whiteSpace=wrap;html=1;" vertex="1" parent="1">
          <mxGeometry x="520" y="330" width="120" height="50" as="geometry" />
        </mxCell>
        <mxCell id="Ll76KPAyWpBioGP8J1gQ-22" value="no" style="text;html=1;strokeColor=none;fillColor=none;align=center;verticalAlign=middle;whiteSpace=wrap;rounded=0;" vertex="1" parent="1">
          <mxGeometry x="450" y="330" width="60" height="30" as="geometry" />
        </mxCell>
        <mxCell id="Ll76KPAyWpBioGP8J1gQ-23" value="yes" style="text;html=1;strokeColor=none;fillColor=none;align=center;verticalAlign=middle;whiteSpace=wrap;rounded=0;" vertex="1" parent="1">
          <mxGeometry x="420" y="420" width="60" height="30" as="geometry" />
        </mxCell>
      </root>
    </mxGraphModel>
  </diagram>
</mxfile>
